HIERARCHY
ROOT pelvis
{
  OFFSET 0 100 0
  CHANNELS 6 Xposition Yposition Zposition Zrotation Xrotation Yrotation
  JOINT pelvis_right_femur
  {
    OFFSET -10.78128 -3.44521 -0.5502486
    CHANNELS 3 Zrotation Xrotation Yrotation
    JOINT right_femur_tibia
    {
      OFFSET -0.8047443 -44.0398 -0.1307829
      CHANNELS 3 Zrotation Xrotation Yrotation
      JOINT right_tibia_foot
      {
        OFFSET 3.006224 -47.83518 -5
        CHANNELS 3 Zrotation Xrotation Yrotation
        End Site
        {
          OFFSET 0 -5 15
        }
      }
    }
  }
  JOINT pelvis_left_femur
  {
    OFFSET 10.78128 -3.44521 -0.5502486
    CHANNELS 3 Zrotation Xrotation Yrotation
    JOINT left_femur_tibia
    {
      OFFSET 0.8047443 -44.0398 -0.1307829
      CHANNELS 3 Zrotation Xrotation Yrotation
      JOINT left_tibia_foot
      {
        OFFSET -4.370144 -48.10324 -4.275266
        CHANNELS 3 Zrotation Xrotation Yrotation
        End Site
        {
          OFFSET 0 -5 15
        }
      }
    }
  }
  JOINT pelvis_spine1
  {
    OFFSET 0 6.468898 -3.129235
    CHANNELS 3 Zrotation Xrotation Yrotation
    JOINT spine1
    {
      OFFSET 0 23.15396 4.99043
      CHANNELS 3 Zrotation Xrotation Yrotation
      JOINT spine2
      {
        OFFSET 0 20.79997 -5.064912
        CHANNELS 3 Zrotation Xrotation Yrotation
        JOINT neck
        {
          OFFSET 0 14.38658 9.616178
          CHANNELS 3 Zrotation Xrotation Yrotation
          End Site
          {
            OFFSET 0 20 0
          }
        }
      }
      JOINT right_manubrium
      {
        OFFSET -5.722621 16.35077 3.967754
        CHANNELS 3 Zrotation Xrotation Yrotation
        JOINT right_clavicle
        {
          OFFSET -13.16364 1.694482 -4.693211
          CHANNELS 3 Zrotation Xrotation Yrotation
          JOINT right_humerus
          {
            OFFSET -28.5034 -0.3100689 -2.792744
            CHANNELS 3 Zrotation Xrotation Yrotation
            JOINT right_radius
            {
              OFFSET -25.15693 0.02248979 -1.271978
              CHANNELS 3 Zrotation Xrotation Yrotation
              End Site
              {
                OFFSET -15 0 0
              }
            }
          }
        }
      }
      JOINT left_manubrium
      {
        OFFSET 5.722621 16.35077 3.967754
        CHANNELS 3 Zrotation Xrotation Yrotation
        JOINT left_clavicle
        {
          OFFSET 13.16364 1.694482 -4.693211
          CHANNELS 3 Zrotation Xrotation Yrotation
          JOINT left_humerus
          {
            OFFSET 29.39168 -1.063119 -2.237045
            CHANNELS 3 Zrotation Xrotation Yrotation
            JOINT left_radius
            {
              OFFSET 24.59957 -0.9528479 0.9047498
              CHANNELS 3 Zrotation Xrotation Yrotation
              End Site
              {
                OFFSET 15 -0 -0
              }
            }
          }
        }
      }
    }
  }
}
MOTION
Frames: 23
Frame Time: 0.0416666666667
0 103.5113 0 1.487741 -3.12672 -0.320767 2.627989 -11.35377 8.261056 -0 38.05335 -0 -6.350595 -18.04474 -3.135285 -7.177891 12.14242 -24.55582 -0 6.653572 -0 9.260702 -15.11218 28.4785 -2.237678 -2.350301 4.986352 2.956067 9.392287 -7.583116 1.131899 20.79261 6.833452 3.810621 -25.85082 8.760183 5.861179 -18.89911 11.61462 84.71255 35.94081 -17.93299 -0 0 15.08257 -8.990408 9.295991 4.985861 6.707236 -21.01628 -0.9607971 -93.15665 21.498 21.33101 0 0 -14.58518 12.06955 15.63106 -0.9943186
0.2610595 103.5406 1.299037 1.321319 -2.742043 -0.6585936 2.771773 -12.51717 8.159961 -0 37.9693 -0 -6.436926 -17.34772 -3.115747 -7.101911 11.93961 -24.26103 -0 6.430212 -0 8.746427 -15.64804 27.86387 -2.23341 -2.347561 4.711256 3.088096 9.375001 -7.799646 1.107162 20.74642 6.917464 3.856128 -26.01802 8.814906 5.921047 -18.54665 11.59054 85.27822 36.09248 -18.77408 -0 0 14.25354 -8.824159 9.38356 4.923177 6.829681 -21.28352 -0.9745937 -92.72302 21.48587 20.50965 0 0 -15.22446 12.34853 15.62815 -1.29809
0.5155813 103.5975 2.875302 0.7817523 -1.814615 -0.6739777 3.065519 -16.43455 7.662751 -0 38.92299 -0 -6.813307 -14.34036 -3.341956 -6.702562 11.31606 -22.84926 -0 5.851443 -0 6.542147 -17.25732 25.30438 -2.231523 -2.334383 4.539626 3.169175 9.364334 -7.933123 1.091695 20.71737 6.964458 3.876071 -26.10945 8.836075 5.954174 -18.32743 11.57649 85.61646 36.14017 -19.28028 -0 0 13.73928 -8.754837 9.440742 4.931052 6.882647 -21.42827 -0.9910201 -92.44638 21.53425 20.00424 0 0 -15.65136 12.40255 15.59188 -1.33006
0.7685997 103.5246 4.659313 0.5527047 -0.8755356 -0.5436458 3.435622 -19.18166 7.257266 -0 36.60346 -0 -6.595583 -13.03639 -3.151037 -6.586012 11.18277 -22.0502 -0 5.380831 -0 5.527251 -18.64835 24.00091 -2.222133 -2.296011 4.309249 3.266782 9.388965 -8.126981 1.048632 20.64597 7.051435 3.933959 -26.19708 8.824843 5.997704 -18.0252 11.56749 86.10053 36.20555 -19.98653 -0 0 13.00636 -8.811253 9.574811 5.01234 6.973888 -21.67424 -1.038138 -91.98688 21.44732 19.24122 0 0 -16.28608 12.50205 15.43086 -1.415684
1.011734 103.2266 6.815815 0.3025887 0.1553902 -0.2789627 3.80315 -22.70435 6.350162 -0 32.51428 -0 -6.42942 -10.84631 -2.776085 -6.430908 11.33739 -20.77919 -0 4.994859 -0 4.270595 -20.42124 22.2729 -2.206273 -2.229467 4.031281 3.376577 9.443881 -8.369759 0.9831784 20.53915 7.166481 4.016912 -26.26904 8.77708 6.045886 -17.6559 11.56317 86.69575 36.25135 -20.84449 -0 0 12.0988 -8.995815 9.775803 5.183409 7.081432 -21.99072 -1.117043 -91.37555 21.27745 18.27196 0 0 -17.10999 12.56088 15.14407 -1.44445
1.241573 102.6993 9.327013 0.05674299 1.19928 0.07627174 4.201482 -25.92656 5.596523 -0 28.08539 -0 -6.226854 -9.137105 -2.418305 -6.28014 11.65599 -19.68799 -0 4.854554 -0 3.090798 -21.97919 20.69022 -2.185506 -2.145037 3.78872 3.460222 9.531224 -8.596231 0.9050141 20.4143 7.285778 4.114395 -26.28386 8.688524 6.082456 -17.32397 11.56879 87.24019 36.26444 -21.61263 -0 0 11.26643 -9.323561 10.00945 5.421973 7.1844 -22.30986 -1.216876 -90.7538 20.99655 17.34182 0 0 -17.90916 12.58244 14.76467 -1.439905
1.449687 101.9325 12.2731 -0.2272301 2.17308 0.5050169 4.576984 -29.11668 4.71077 -0 23.20688 -0 -6.145742 -7.21534 -2.06231 -6.075108 12.20931 -18.45229 -0 5.192641 -0 1.752556 -23.34674 18.9022 -2.160722 -2.040054 3.570561 3.523074 9.64665 -8.813081 0.8161537 20.27379 7.406908 4.220903 -26.24201 8.55997 6.106317 -17.01429 11.58204 87.74814 36.23118 -22.31536 -0 0 10.48095 -9.786547 10.27296 5.732781 7.277571 -22.63024 -1.340355 -90.10802 20.63737 16.42318 0 0 -18.71763 12.53409 14.29044 -1.357112
1.630524 100.9704 15.6866 -0.5625944 3.061892 0.9846045 4.978968 -31.94472 3.926983 -0 18.55298 -0 -6.183652 -5.458837 -1.786287 -5.812154 12.90937 -17.25814 -0 6.163244 -0 0.3019476 -24.28845 17.0227 -2.134462 -1.921713 3.395389 3.558837 9.780486 -9.001425 0.7249825 20.13099 7.517697 4.325498 -26.14039 8.400657 6.112637 -16.7507 11.60105 88.17513 36.147 -22.89114 -0 0 9.808351 -10.35039 10.54199 6.091096 7.351428 -22.92335 -1.479592 -89.48781 20.23362 15.587 0 0 -19.47383 12.41272 13.75676 -1.194706
1.77667 99.88046 19.62706 -0.946251 3.740235 1.487106 5.397267 -34.18599 3.210203 -0 14.37613 -0 -6.402965 -3.786083 -1.620339 -5.470055 13.76452 -16.04872 -0 8.101896 -0 -1.250204 -24.5983 15.03539 -2.108557 -1.791836 3.266121 3.567215 9.925487 -9.155325 0.636633 19.99382 7.611058 4.419716 -25.9781 8.215822 6.09858 -16.53667 11.62373 88.50664 36.00202 -23.32237 -0 0 9.265103 -10.99478 10.80414 6.488957 7.397848 -23.17337 -1.632181 -88.90649 19.82345 14.85122 0 0 -20.16568 12.1972 13.17883 -0.9243555
1.883183 98.78339 24.13582 -1.364995 4.126137 1.974129 5.873325 -35.48177 2.688789 -0 11.19894 -0 -6.810088 -2.392359 -1.613678 -5.044797 14.66613 -14.90787 -0 11.31119 -0 -2.802801 -24.04214 13.06997 -2.085208 -1.655605 3.190121 3.54668 10.07251 -9.264538 0.5574077 19.8723 7.679263 4.494999 -25.75822 8.014962 6.062111 -16.38238 11.64799 88.72039 35.79419 -23.5797 -0 0 8.882428 -11.68826 11.04325 6.908702 7.410021 -23.36077 -1.791728 -88.3898 19.44417 14.25166 0 0 -20.75978 11.88293 12.58375 -0.5391533
1.947989 97.84787 29.23652 -1.778019 4.084181 2.391487 6.417512 -35.40716 2.42825 -0 9.48917 -0 -7.398609 -1.400517 -1.803584 -4.542238 15.4408 -13.86802 -0 16.18114 -0 -4.206974 -22.39932 11.29837 -2.06638 -1.517401 3.175727 3.494825 10.21405 -9.318454 0.4924062 19.77485 7.71623 4.544598 -25.48373 7.806301 6.001773 -16.29946 11.67253 88.79364 35.52296 -23.63214 -0 0 8.692239 -12.40703 11.24649 7.337454 7.381695 -23.46684 -1.951984 -87.96136 19.12749 13.82494 0 0 -21.22122 11.46583 11.99342 -0.03264827
1.974706 97.28675 34.90098 -2.123542 3.523515 2.674517 7.01555 -33.58324 2.491914 -0 9.632171 -0 -8.103312 -0.9578675 -2.19726 -3.996856 15.75699 -12.97536 -0 22.97216 -0 -5.300375 -19.59812 9.948755 -2.05389 -1.382659 3.233919 3.408162 10.34359 -9.304768 0.4458336 19.70882 7.717573 4.564227 -25.16025 7.598608 5.917342 -16.30373 11.69679 88.70152 35.19412 -23.44399 -0 0 8.732576 -13.12856 11.40164 7.761368 7.30891 -23.47372 -2.104798 -87.65026 18.89544 13.61684 0 0 -21.50425 10.95374 11.43096 0.5859708
1.971979 97.31259 41.02242 -2.318646 2.401719 2.759532 7.580844 -29.82254 2.84051 -0 11.6296 -0 -8.796416 -1.096837 -2.737919 -3.478833 15.14192 -12.20968 -0 31.68307 -0 -5.982862 -15.83097 9.229019 -2.049137 -1.256518 3.377564 3.282078 10.45702 -9.210642 0.4202426 19.67932 7.680963 4.552656 -24.79404 7.398798 5.809456 -16.41408 11.72125 88.4191 34.81632 -22.97729 -0 0 9.044387 -13.83787 11.49847 8.170224 7.189666 -23.36593 -2.241704 -87.4878 18.75725 13.67822 0 0 -21.55804 10.36093 10.91523 1.298511
1.949382 98.05943 47.39922 -2.28592 0.7920324 2.607656 7.982885 -24.34538 3.336171 -0 14.84751 -0 -9.294271 -1.696084 -3.277339 -3.079748 13.06086 -11.4751 -0 41.75609 -0 -6.283061 -11.66371 9.262416 -2.052758 -1.143365 3.618141 3.112333 10.55291 -9.025618 0.4162668 19.68832 7.606325 4.511766 -24.39217 7.211185 5.679724 -16.64861 11.74717 87.92841 34.3987 -22.20133 -0 0 9.662473 -14.52717 11.52996 8.558096 7.024473 -23.13369 -2.355083 -87.50306 18.70816 14.0555 0 0 -21.33577 9.706746 10.45935 2.079698
1.91155 99.4872 53.76233 -1.991305 -1.111737 2.22318 8.115904 -17.83421 3.780724 -0 17.99999 -0 -9.418113 -2.520678 -3.607886 -2.844472 9.125951 -10.62011 -0 51.90269 -0 -6.339886 -7.939944 10.0443 -2.064286 -1.045755 3.961625 2.896738 10.63259 -8.74493 0.4327645 19.73421 7.495355 4.445362 -23.96102 7.036609 5.530289 -17.01911 11.77605 87.22582 33.9456 -21.10323 -0 0 10.6046 -15.19676 11.49483 8.925638 6.815467 -22.77512 -2.440187 -87.71542 18.73282 14.77752 0 0 -20.80792 9.007541 10.06739 2.908084
1.859142 101.3326 59.85382 -1.487751 -3.025931 1.650403 7.966917 -11.2454 3.993365 -0 19.5977 -0 -9.102122 -3.422074 -3.571859 -2.677171 3.368277 -9.524793 -0 60.13925 -0 -6.290048 -5.449944 11.41822 -2.082065 -0.9638377 4.404643 2.636868 10.69907 -8.372115 0.4675239 19.81222 7.350854 4.357299 -23.5057 6.873178 5.363541 -17.52575 11.80892 86.32811 33.45318 -19.69725 -0 0 11.86175 -15.85308 11.39964 9.280536 6.565317 -22.29703 -2.49631 -88.12788 18.81248 15.84361 0 0 -19.97357 8.269675 9.733609 3.776164
1.801348 103.1648 65.52432 -0.9252587 -4.667017 0.9457837 7.618798 -5.384853 3.873373 -0 18.73879 -0 -8.477222 -4.54652 -3.185608 -2.325058 -3.583827 -8.164929 -0 64.26115 -0 -6.140802 -4.48317 13.08016 -2.103656 -0.8952491 4.933843 2.338314 10.75572 -7.918754 0.5181555 19.91579 7.17615 4.249884 -23.02954 6.717859 5.181746 -18.15514 11.84581 85.27199 32.90944 -18.02531 -0 0 13.39646 -16.5069 11.25891 9.636718 6.276177 -21.71285 -2.526622 -88.72509 18.93208 17.22047 0 0 -18.86311 7.486185 9.443039 4.695478
1.76824 104.546 70.78353 -0.500604 -5.833166 0.1538541 7.195914 -0.5391266 3.45445 -0 15.72764 -0 -7.829347 -6.290215 -2.640618 -1.517959 -10.64014 -6.630825 -0 62.75753 -0 -5.784068 -4.627482 14.66741 -2.126537 -0.8354564 5.527571 2.009835 10.80529 -7.402566 0.5824759 20.03788 6.975338 4.123937 -22.53437 6.568018 4.986853 -18.88115 11.88554 84.11002 32.29861 -16.15239 -0 0 15.14622 -17.17171 11.09272 10.01157 5.950379 -21.04097 -2.537004 -89.47435 19.08148 18.84472 0 0 -17.53392 6.642357 9.173535 5.689407
1.804334 105.2108 75.7654 -0.360411 -6.407632 -0.6899271 6.792689 3.527466 2.939715 -0 11.98228 -0 -7.425893 -8.932063 -2.154896 -0.1974463 -16.75706 -5.154539 -0 55.74001 -0 -5.188077 -5.081257 15.92292 -2.148633 -0.778545 6.157191 1.662744 10.84991 -6.846382 0.658057 20.17142 6.754531 3.980787 -22.02208 6.422272 4.78085 -19.66563 11.92571 82.90776 31.6096 -14.16428 -0 0 17.02496 -17.86056 10.92302 10.42057 5.593579 -20.30634 -2.534918 -90.32599 19.25044 20.62391 0 0 -16.06562 5.730192 8.899479 6.773591
1.946084 105.1424 80.6486 -0.512506 -6.349981 -1.541885 6.421123 7.205891 2.621424 -0 9.18853 -0 -7.323925 -12.25272 -1.825559 1.35878 -21.40538 -4.080354 -0 45.10178 -0 -4.526293 -5.244521 16.79371 -2.168475 -0.7188559 6.787146 1.311412 10.89106 -6.27879 0.7414032 20.30907 6.523394 3.824894 -21.49855 6.281268 4.567107 -20.45886 11.9629 81.74197 30.8477 -12.16879 -0 0 18.92228 -18.57796 10.76985 10.86899 5.218884 -19.54463 -2.528314 -91.21322 19.42373 22.43666 0 0 -14.55665 4.765591 8.599778 7.932572
2.207079 104.5103 85.60311 -0.8072527 -5.785577 -2.34741 6.003356 10.69425 2.667604 -0 8.360251 -0 -7.299734 -15.49606 -1.600368 2.666679 -24.5636 -3.667273 -0 33.67681 -0 -4.045212 -5.030723 17.39476 -2.185202 -0.6532055 7.377174 0.97352 10.92897 -5.733323 0.8277299 20.44343 6.295173 3.664704 -20.97803 6.148497 4.352004 -21.20398 11.99322 80.69156 30.04324 -10.28883 -0 0 20.71147 -19.30982 10.64747 11.34475 4.847791 -18.80204 -2.524064 -92.05892 19.58433 24.14431 0 0 -13.1155 3.794642 8.26847 9.110801
2.582129 103.548 90.78091 -1.022744 -5.050761 -3.064298 5.428891 13.93377 2.989503 -0 9.553353 -0 -6.988408 -17.7072 -1.346521 3.316515 -26.40947 -3.900662 -0 24.0008 -0 -3.8535 -4.719164 17.8938 -2.198626 -0.5819479 7.889176 0.6679222 10.96213 -5.243519 0.9117359 20.568 6.084264 3.510581 -20.48263 6.029808 4.144925 -21.84735 12.01337 79.82009 29.24767 -8.640444 -0 0 22.27223 -20.02216 10.56236 11.81969 4.505329 -18.12673 -2.526645 -92.79079 19.7225 25.61786 0 0 -11.84406 2.879665 7.918596 10.23028
3.057888 102.4692 96.31841 -0.9964225 -4.546291 -3.677761 4.637087 16.72808 3.32846 -0 12.2888 -0 -6.161097 -18.1683 -0.9744496 3.15791 -27.08932 -4.537949 -0 17.4379 -0 -3.871898 -4.624829 18.39391 -2.209224 -0.5076793 8.294708 0.4107825 10.98797 -4.836612 0.9886636 20.67804 5.902954 3.371651 -20.03562 5.931086 3.955955 -22.34847 12.02148 79.16326 28.517 -7.309944 -0 0 23.51378 -20.67356 10.51462 12.26013 4.212881 -17.55784 -2.5384 -93.35434 19.84041 26.76197 0 0 -10.82303 2.075582 7.573614 11.22117
